<svg width="24" height="24" viewBox="0 0 24 24" fill="none" xmlns="http://www.w3.org/2000/svg">
<path fill-rule="evenodd" clip-rule="evenodd" d="M23.3143 12.6912C23.3143 18.9369 18.2488 24 12.0002 24C5.75162 24 0.686127 18.9369 0.686127 12.6912C0.686127 6.44546 5.75162 1.38232 12.0002 1.38232C18.2488 1.38232 23.3143 6.44546 23.3143 12.6912ZM21.8856 12.691C21.8856 18.148 17.4598 22.5717 12.0003 22.5717C6.54082 22.5717 2.11502 18.148 2.11502 12.691C2.11502 7.23407 6.54082 2.81032 12.0003 2.81032C17.4598 2.81032 21.8856 7.23407 21.8856 12.691Z" fill="url(#paint0_linear_34_31)"/>
<g clip-path="url(#clip0_34_31)">
<path d="M14.647 13.8513C15.2299 12.4441 14.5616 10.8308 13.1544 10.2479C11.7472 9.66499 10.1339 10.3332 9.55102 11.7405C8.96813 13.1477 9.63638 14.761 11.0436 15.3439C12.4508 15.9268 14.0641 15.2585 14.647 13.8513Z" fill="#666666"/>
<path fill-rule="evenodd" clip-rule="evenodd" d="M14.9284 12.2287C15.1045 12.9881 14.9551 13.7491 14.5714 14.3646C14.1881 14.9797 13.5706 15.4493 12.8114 15.6257C12.0522 15.8018 11.2909 15.6523 10.6758 15.2687C10.0607 14.8854 9.59106 14.2678 9.41467 13.5086C9.23857 12.7495 9.38802 11.9882 9.77165 11.373C10.1547 10.7573 10.7722 10.2877 11.5314 10.1113C12.2906 9.93523 13.0519 10.0847 13.667 10.4683C14.2821 10.8516 14.7517 11.4692 14.9281 12.2284L14.9284 12.2287ZM14.6562 12.2919C14.4975 11.6078 14.0743 11.0514 13.5197 10.7058C12.965 10.3602 12.2792 10.2251 11.5949 10.3839C10.9109 10.5426 10.3544 10.9657 10.0088 11.5204C9.66324 12.075 9.52817 12.7608 9.6869 13.4452C9.84562 14.1292 10.2688 14.6856 10.8234 15.0312C11.3781 15.3768 12.0639 15.5119 12.7482 15.3532C13.4322 15.1944 13.9887 14.7713 14.3343 14.2166C14.6799 13.662 14.8149 12.9762 14.6562 12.2919Z" fill="#EBD478"/>
<path fill-rule="evenodd" clip-rule="evenodd" d="M13.3053 10.2891C14.004 10.6 14.5131 11.1654 14.7715 11.8282C14.703 11.8982 14.6299 11.9665 14.5523 12.0324C14.5418 12.0016 14.5307 11.9707 14.5191 11.9405C14.2876 11.3379 13.827 10.8234 13.1933 10.5413C12.5596 10.2595 11.869 10.2619 11.2667 10.4934C10.6641 10.7249 10.1496 11.1855 9.86752 11.8192V11.8195C9.69382 12.2103 9.62823 12.6227 9.65758 13.0228C9.56265 13.0024 9.46921 12.9803 9.37727 12.956C9.3596 12.5394 9.43477 12.113 9.61536 11.7075C9.92771 11.0037 10.4985 10.4928 11.167 10.2358C11.8354 9.97887 12.6015 9.97618 13.305 10.2891H13.3053Z" fill="#FDEBAA"/>
<path fill-rule="evenodd" clip-rule="evenodd" d="M12.1714 10.2242C12.9015 10.2242 13.5625 10.5201 14.041 10.9987C14.5196 11.4773 14.8155 12.1382 14.8155 12.8684C14.8155 13.5985 14.5196 14.2595 14.041 14.738C13.5625 15.2166 12.9015 15.5125 12.1714 15.5125C11.4412 15.5125 10.7803 15.2166 10.3017 14.738C9.82314 14.2595 9.52725 13.5985 9.52725 12.8684C9.52725 12.1382 9.82314 11.4773 10.3017 10.9987C10.7803 10.5201 11.4412 10.2242 12.1714 10.2242ZM13.9898 11.0499C13.5244 10.5845 12.8814 10.2967 12.1714 10.2967C11.4613 10.2967 10.8183 10.5845 10.3529 11.0499C9.88753 11.5153 9.59973 12.1583 9.59973 12.8684C9.59973 13.5784 9.88753 14.2214 10.3529 14.6868C10.8183 15.1522 11.4613 15.44 12.1714 15.44C12.8814 15.44 13.5244 15.1522 13.9898 14.6868C14.4552 14.2214 14.743 13.5784 14.743 12.8684C14.743 12.1583 14.4552 11.5153 13.9898 11.0499Z" fill="url(#paint1_linear_34_31)"/>
<path d="M10.0888 11.7812C9.80992 12.3152 9.73403 12.9553 9.92807 13.5731C10.1221 14.1908 10.5504 14.6726 11.0843 14.9512C11.6183 15.2298 12.2584 15.3057 12.8762 15.1119L12.8762 15.1119C13.494 14.9179 13.9757 14.4896 14.2543 13.9557C14.5329 13.4217 14.6091 12.7816 14.4151 12.1638C14.221 11.546 13.7928 11.0643 13.2588 10.7857C12.7249 10.5071 12.0847 10.4312 11.467 10.6249L11.467 10.6249C10.8492 10.819 10.3674 11.2473 10.0888 11.7812ZM10.0888 11.7812L10.1077 11.7911L10.0888 11.7812C10.0888 11.7812 10.0888 11.7812 10.0888 11.7812ZM14.443 14.054C14.7469 13.4718 14.8294 12.7738 14.618 12.0999C14.4062 11.4263 13.9393 10.9009 13.3571 10.597C12.7749 10.2931 12.0769 10.2106 11.403 10.4221L14.443 14.054ZM14.443 14.054C14.1391 14.6362 13.6137 15.1031 12.9401 15.3148M14.443 14.054L12.9401 15.3148M12.9401 15.3148C12.2662 15.5263 11.5682 15.4437 10.986 15.1399C10.4038 14.836 9.93696 14.3106 9.72519 13.637L12.9401 15.3148ZM9.72519 13.637C9.51373 12.9631 9.59627 12.2651 9.90015 11.6829C10.204 11.1007 10.7294 10.6338 11.403 10.4221L9.72519 13.637Z" fill="url(#paint2_linear_34_31)" stroke="url(#paint3_linear_34_31)" stroke-width="0.0425624"/>
<path d="M14.0323 11.3023L14.0323 11.3023C14.4331 11.7785 14.6522 12.4076 14.5946 13.0768C14.537 13.7459 14.2137 14.3284 13.7375 14.7292C13.2613 15.13 12.6322 15.3491 11.963 15.2915C11.2939 15.2339 10.7114 14.9106 10.3106 14.4344C9.90976 13.9582 9.69068 13.3291 9.74828 12.6599C9.80588 11.9908 10.1292 11.4083 10.6054 11.0075C11.0816 10.6067 11.7107 10.3876 12.3799 10.4452L12.3799 10.4453H12.3811C13.0499 10.5031 13.632 10.8263 14.0323 11.3023ZM13.9026 11.4117C13.5298 10.9689 12.988 10.668 12.3658 10.6145C11.7434 10.561 11.1583 10.7648 10.7154 11.1375C10.2726 11.5103 9.97172 12.0521 9.91821 12.6743C9.8647 13.2967 10.0685 13.8818 10.4412 14.3247C10.814 14.7675 11.3558 15.0684 11.978 15.1219C12.6001 15.1754 13.1855 14.9716 13.6284 14.5989C14.0712 14.2261 14.3721 13.6843 14.4256 13.0621C14.4791 12.4397 14.2753 11.8546 13.9026 11.4117Z" fill="url(#paint4_linear_34_31)" stroke="url(#paint5_linear_34_31)" stroke-width="0.0425624"/>
<path d="M12.4313 15.2404C13.7412 15.0967 14.6866 13.9184 14.5429 12.6085C14.3992 11.2986 13.2208 10.3532 11.911 10.4969C10.6011 10.6406 9.6557 11.8189 9.79938 13.1288C9.94307 14.4387 11.1214 15.3841 12.4313 15.2404Z" fill="url(#paint6_radial_34_31)"/>
<mask id="path-9-inside-1_34_31" fill="white">
<path fill-rule="evenodd" clip-rule="evenodd" d="M12.1714 10.5449C12.8114 10.5449 13.3921 10.8058 13.8132 11.2268C14.2339 11.6476 14.4951 12.2286 14.4951 12.8683C14.4951 13.5086 14.2342 14.0893 13.8132 14.5104C13.3924 14.9311 12.8114 15.192 12.1717 15.1923C11.5317 15.1923 10.951 14.9314 10.5299 14.5104C10.1092 14.0896 9.84802 13.5086 9.84802 12.8689C9.84802 12.2286 10.1089 11.6479 10.5299 11.2268C10.9507 10.8061 11.5317 10.5449 12.1714 10.5449ZM12.1714 10.633C11.556 10.633 10.9971 10.8839 10.5922 11.2888C10.1873 11.6937 9.93607 12.2526 9.93607 12.8683C9.93607 13.484 10.187 14.0429 10.5919 14.4478C10.9968 14.8527 11.5557 15.1036 12.1711 15.1039C12.7865 15.1039 13.3454 14.853 13.7503 14.4481C14.1552 14.0432 14.4064 13.4843 14.4064 12.8689C14.4064 12.2532 14.1555 11.6943 13.7506 11.2894C13.3457 10.8845 12.7868 10.6336 12.1714 10.6333V10.633Z"/>
</mask>
<path fill-rule="evenodd" clip-rule="evenodd" d="M12.1714 10.5449C12.8114 10.5449 13.3921 10.8058 13.8132 11.2268C14.2339 11.6476 14.4951 12.2286 14.4951 12.8683C14.4951 13.5086 14.2342 14.0893 13.8132 14.5104C13.3924 14.9311 12.8114 15.192 12.1717 15.1923C11.5317 15.1923 10.951 14.9314 10.5299 14.5104C10.1092 14.0896 9.84802 13.5086 9.84802 12.8689C9.84802 12.2286 10.1089 11.6479 10.5299 11.2268C10.9507 10.8061 11.5317 10.5449 12.1714 10.5449ZM12.1714 10.633C11.556 10.633 10.9971 10.8839 10.5922 11.2888C10.1873 11.6937 9.93607 12.2526 9.93607 12.8683C9.93607 13.484 10.187 14.0429 10.5919 14.4478C10.9968 14.8527 11.5557 15.1036 12.1711 15.1039C12.7865 15.1039 13.3454 14.853 13.7503 14.4481C14.1552 14.0432 14.4064 13.4843 14.4064 12.8689C14.4064 12.2532 14.1555 11.6943 13.7506 11.2894C13.3457 10.8845 12.7868 10.6336 12.1714 10.6333V10.633Z" fill="url(#paint7_linear_34_31)"/>
<path d="M12.1717 15.1923V15.3625H12.1718L12.1717 15.1923ZM12.1714 10.633H12.3417V10.4627H12.1714V10.633ZM12.1711 15.1039L12.171 15.2742H12.1711V15.1039ZM12.1714 10.6333H12.0012V10.8034L12.1713 10.8035L12.1714 10.6333ZM12.1714 10.7152C12.7642 10.7152 13.3021 10.9566 13.6928 11.3472L13.9335 11.1065C13.482 10.6549 12.8586 10.3747 12.1714 10.3747V10.7152ZM13.6928 11.3472C14.0831 11.7376 14.3248 12.2759 14.3248 12.8683H14.6653C14.6653 12.1814 14.3847 11.5576 13.9335 11.1065L13.6928 11.3472ZM14.3248 12.8683C14.3248 13.4614 14.0834 13.9993 13.6928 14.39L13.9335 14.6307C14.3851 14.1792 14.6653 13.5558 14.6653 12.8683H14.3248ZM13.6928 14.39C13.3025 14.7803 12.7642 15.0218 12.1716 15.022L12.1718 15.3625C12.8586 15.3622 13.4823 15.082 13.9335 14.6307L13.6928 14.39ZM12.1717 15.022C11.5789 15.022 11.041 14.7806 10.6503 14.39L10.4096 14.6307C10.8611 15.0823 11.4845 15.3625 12.1717 15.3625V15.022ZM10.6503 14.39C10.26 13.9996 10.0183 13.4613 10.0183 12.8689H9.67777C9.67777 13.5558 9.95837 14.1796 10.4096 14.6307L10.6503 14.39ZM10.0183 12.8689C10.0183 12.2758 10.2597 11.7379 10.6503 11.3472L10.4096 11.1065C9.95804 11.558 9.67777 12.1814 9.67777 12.8689H10.0183ZM10.6503 11.3472C11.0407 10.9569 11.579 10.7152 12.1714 10.7152V10.3747C11.4845 10.3747 10.8607 10.6553 10.4096 11.1065L10.6503 11.3472ZM12.1714 10.4627C11.5088 10.4627 10.9072 10.7331 10.4718 11.1684L10.7126 11.4092C11.0871 11.0348 11.6032 10.8032 12.1714 10.8032V10.4627ZM10.4718 11.1684C10.0365 11.6038 9.76582 12.2053 9.76582 12.8683H10.1063C10.1063 12.2998 10.3381 11.7837 10.7126 11.4092L10.4718 11.1684ZM9.76582 12.8683C9.76582 13.5312 10.0362 14.1328 10.4716 14.5682L10.7123 14.3274C10.3379 13.9529 10.1063 13.4368 10.1063 12.8683H9.76582ZM10.4716 14.5682C10.9069 15.0035 11.5084 15.2739 12.171 15.2742L12.1712 14.9337C11.6029 14.9334 11.0868 14.7018 10.7123 14.3274L10.4716 14.5682ZM12.1711 15.2742C12.8337 15.2742 13.4353 15.0038 13.8707 14.5685L13.6299 14.3277C13.2554 14.7021 12.7393 14.9337 12.1711 14.9337V15.2742ZM13.8707 14.5685C14.306 14.1331 14.5767 13.5316 14.5767 12.8689H14.2362C14.2362 13.4371 14.0044 13.9532 13.6299 14.3277L13.8707 14.5685ZM14.5767 12.8689C14.5767 12.206 14.3063 11.6044 13.871 11.169L13.6302 11.4098C14.0046 11.7843 14.2362 12.3004 14.2362 12.8689H14.5767ZM13.871 11.169C13.4356 10.7337 12.8341 10.4633 12.1715 10.463L12.1713 10.8035C12.7396 10.8038 13.2557 11.0354 13.6302 11.4098L13.871 11.169ZM12.3417 10.6333V10.633H12.0012V10.6333H12.3417Z" fill="url(#paint8_linear_34_31)" mask="url(#path-9-inside-1_34_31)"/>
<path d="M12.1717 15.1923V15.3625H12.1718L12.1717 15.1923ZM12.1714 10.633H12.3417V10.4627H12.1714V10.633ZM12.1711 15.1039L12.171 15.2742H12.1711V15.1039ZM12.1714 10.6333H12.0012V10.8034L12.1713 10.8035L12.1714 10.6333ZM12.1714 10.7152C12.7642 10.7152 13.3021 10.9566 13.6928 11.3472L13.9335 11.1065C13.482 10.6549 12.8586 10.3747 12.1714 10.3747V10.7152ZM13.6928 11.3472C14.0831 11.7376 14.3248 12.2759 14.3248 12.8683H14.6653C14.6653 12.1814 14.3847 11.5576 13.9335 11.1065L13.6928 11.3472ZM14.3248 12.8683C14.3248 13.4614 14.0834 13.9993 13.6928 14.39L13.9335 14.6307C14.3851 14.1792 14.6653 13.5558 14.6653 12.8683H14.3248ZM13.6928 14.39C13.3025 14.7803 12.7642 15.0218 12.1716 15.022L12.1718 15.3625C12.8586 15.3622 13.4823 15.082 13.9335 14.6307L13.6928 14.39ZM12.1717 15.022C11.5789 15.022 11.041 14.7806 10.6503 14.39L10.4096 14.6307C10.8611 15.0823 11.4845 15.3625 12.1717 15.3625V15.022ZM10.6503 14.39C10.26 13.9996 10.0183 13.4613 10.0183 12.8689H9.67777C9.67777 13.5558 9.95837 14.1796 10.4096 14.6307L10.6503 14.39ZM10.0183 12.8689C10.0183 12.2758 10.2597 11.7379 10.6503 11.3472L10.4096 11.1065C9.95804 11.558 9.67777 12.1814 9.67777 12.8689H10.0183ZM10.6503 11.3472C11.0407 10.9569 11.579 10.7152 12.1714 10.7152V10.3747C11.4845 10.3747 10.8607 10.6553 10.4096 11.1065L10.6503 11.3472ZM12.1714 10.4627C11.5088 10.4627 10.9072 10.7331 10.4718 11.1684L10.7126 11.4092C11.0871 11.0348 11.6032 10.8032 12.1714 10.8032V10.4627ZM10.4718 11.1684C10.0365 11.6038 9.76582 12.2053 9.76582 12.8683H10.1063C10.1063 12.2998 10.3381 11.7837 10.7126 11.4092L10.4718 11.1684ZM9.76582 12.8683C9.76582 13.5312 10.0362 14.1328 10.4716 14.5682L10.7123 14.3274C10.3379 13.9529 10.1063 13.4368 10.1063 12.8683H9.76582ZM10.4716 14.5682C10.9069 15.0035 11.5084 15.2739 12.171 15.2742L12.1712 14.9337C11.6029 14.9334 11.0868 14.7018 10.7123 14.3274L10.4716 14.5682ZM12.1711 15.2742C12.8337 15.2742 13.4353 15.0038 13.8707 14.5685L13.6299 14.3277C13.2554 14.7021 12.7393 14.9337 12.1711 14.9337V15.2742ZM13.8707 14.5685C14.306 14.1331 14.5767 13.5316 14.5767 12.8689H14.2362C14.2362 13.4371 14.0044 13.9532 13.6299 14.3277L13.8707 14.5685ZM14.5767 12.8689C14.5767 12.206 14.3063 11.6044 13.871 11.169L13.6302 11.4098C14.0046 11.7843 14.2362 12.3004 14.2362 12.8689H14.5767ZM13.871 11.169C13.4356 10.7337 12.8341 10.4633 12.1715 10.463L12.1713 10.8035C12.7396 10.8038 13.2557 11.0354 13.6302 11.4098L13.871 11.169ZM12.3417 10.6333V10.633H12.0012V10.6333H12.3417Z" fill="url(#paint9_linear_34_31)" mask="url(#path-9-inside-1_34_31)"/>
</g>
<g filter="url(#filter0_d_34_31)">
<path d="M13.3976 0.798046H10.903L11.1494 0H13.1447L13.3976 0.798046Z" fill="url(#paint10_linear_34_31)"/>
<path d="M12.9486 0.798046H11.3521L11.1525 0H13.1482L12.9486 0.798046Z" fill="url(#paint11_linear_34_31)"/>
<path d="M12.1501 3.59185L10.4476 0.6427H13.853L12.1501 3.59185Z" fill="url(#paint12_linear_34_31)"/>
<path d="M10.966 0.942383H13.3346L12.1505 2.99347L10.966 0.942383Z" fill="url(#paint13_linear_34_31)"/>
<path d="M11.1388 1.04187H13.1618L12.1505 2.79374L11.1388 1.04187Z" fill="#F15A24"/>
</g>
<defs>
<filter id="filter0_d_34_31" x="10.2135" y="0" width="3.87361" height="5.14959" filterUnits="userSpaceOnUse" color-interpolation-filters="sRGB">
<feFlood flood-opacity="0" result="BackgroundImageFix"/>
<feColorMatrix in="SourceAlpha" type="matrix" values="0 0 0 0 0 0 0 0 0 0 0 0 0 0 0 0 0 0 127 0" result="hardAlpha"/>
<feOffset dy="0.425624"/>
<feGaussianBlur stdDeviation="0.117047"/>
<feComposite in2="hardAlpha" operator="out"/>
<feColorMatrix type="matrix" values="0 0 0 0 0 0 0 0 0 0 0 0 0 0 0 0 0 0 0.25 0"/>
<feBlend mode="normal" in2="BackgroundImageFix" result="effect1_dropShadow_34_31"/>
<feBlend mode="normal" in="SourceGraphic" in2="effect1_dropShadow_34_31" result="shape"/>
</filter>
<linearGradient id="paint0_linear_34_31" x1="11.5232" y1="1.65232" x2="12.4634" y2="23.4362" gradientUnits="userSpaceOnUse">
<stop stop-color="#F9CA2E"/>
<stop offset="0.03" stop-color="#F9D14C"/>
<stop offset="0.12" stop-color="#FCE9AB"/>
<stop offset="0.18" stop-color="#FEF9E7"/>
<stop offset="0.21" stop-color="white"/>
<stop offset="0.3" stop-color="#FFF8E6"/>
<stop offset="0.48" stop-color="#FFEAAA"/>
<stop offset="0.79" stop-color="#D38423"/>
<stop offset="1" stop-color="#824D51"/>
</linearGradient>
<linearGradient id="paint1_linear_34_31" x1="10.3131" y1="15.8422" x2="14.0297" y2="9.89421" gradientUnits="userSpaceOnUse">
<stop stop-color="#482A0F"/>
<stop offset="0.1" stop-color="#A77129"/>
<stop offset="0.22" stop-color="#DA9E41"/>
<stop offset="0.34" stop-color="#8E5923"/>
<stop offset="0.5" stop-color="#D8A64D"/>
<stop offset="0.66" stop-color="#F5E380"/>
<stop offset="0.83" stop-color="#A0752B"/>
<stop offset="1" stop-color="#664219"/>
</linearGradient>
<linearGradient id="paint2_linear_34_31" x1="14.4056" y1="11.1849" x2="9.93729" y2="14.552" gradientUnits="userSpaceOnUse">
<stop stop-color="#482A0F"/>
<stop offset="0.1" stop-color="#A77129"/>
<stop offset="0.15" stop-color="white"/>
<stop offset="0.22" stop-color="#DA9E41"/>
<stop offset="0.34" stop-color="#8E5923"/>
<stop offset="0.5" stop-color="#D8A64D"/>
<stop offset="0.66" stop-color="#F5E380"/>
<stop offset="0.72" stop-color="#DAC164"/>
<stop offset="0.77" stop-color="white"/>
<stop offset="0.83" stop-color="#A0752B"/>
<stop offset="1" stop-color="#664219"/>
</linearGradient>
<linearGradient id="paint3_linear_34_31" x1="12.0596" y1="10.2768" x2="12.2805" y2="15.3911" gradientUnits="userSpaceOnUse">
<stop stop-color="#F9CA2E"/>
<stop offset="0.03" stop-color="#F9D14C"/>
<stop offset="0.12" stop-color="#FCE9AB"/>
<stop offset="0.18" stop-color="#FEF9E7"/>
<stop offset="0.21" stop-color="white"/>
<stop offset="0.3" stop-color="#FFF8E6"/>
<stop offset="0.48" stop-color="#FFEAAA"/>
<stop offset="0.79" stop-color="#D38423"/>
<stop offset="1" stop-color="#824D51"/>
</linearGradient>
<linearGradient id="paint4_linear_34_31" x1="13.0172" y1="15.4714" x2="11.2008" y2="9.88132" gradientUnits="userSpaceOnUse">
<stop stop-color="#BA9555"/>
<stop offset="0.12" stop-color="#965824"/>
<stop offset="0.4" stop-color="#FCF6AC"/>
<stop offset="0.67" stop-color="#D3AC53"/>
<stop offset="0.85" stop-color="#BD882C"/>
<stop offset="1" stop-color="#A25D25"/>
</linearGradient>
<linearGradient id="paint5_linear_34_31" x1="12.0652" y1="10.4089" x2="12.2748" y2="15.2624" gradientUnits="userSpaceOnUse">
<stop stop-color="#F9CA2E"/>
<stop offset="0.03" stop-color="#F9D14C"/>
<stop offset="0.12" stop-color="#FCE9AB"/>
<stop offset="0.18" stop-color="#FEF9E7"/>
<stop offset="0.21" stop-color="white"/>
<stop offset="0.3" stop-color="#FFF8E6"/>
<stop offset="0.48" stop-color="#FFEAAA"/>
<stop offset="0.79" stop-color="#D38423"/>
<stop offset="1" stop-color="#824D51"/>
</linearGradient>
<radialGradient id="paint6_radial_34_31" cx="0" cy="0" r="1" gradientUnits="userSpaceOnUse" gradientTransform="translate(12.1714 12.8684) scale(2.56446)">
<stop stop-color="#F6CC37"/>
<stop offset="0.14" stop-color="#FF9C27"/>
<stop offset="0.55" stop-color="#C41414"/>
<stop offset="0.785" stop-color="#861414"/>
<stop offset="1" stop-color="#500000"/>
</radialGradient>
<linearGradient id="paint7_linear_34_31" x1="12.9755" y1="15.4984" x2="11.4796" y2="10.6051" gradientUnits="userSpaceOnUse">
<stop/>
<stop offset="0.11" stop-color="#211A18"/>
<stop offset="0.28" stop-color="white"/>
<stop offset="0.4" stop-color="#414042"/>
<stop offset="0.65" stop-color="#231F20"/>
<stop offset="0.76" stop-color="white"/>
<stop offset="1"/>
</linearGradient>
<linearGradient id="paint8_linear_34_31" x1="12.1716" y1="15.1923" x2="12.1716" y2="10.5449" gradientUnits="userSpaceOnUse">
<stop stop-color="#E3B877"/>
<stop offset="0.02" stop-color="#C49858"/>
<stop offset="0.04" stop-color="#AC7F40"/>
<stop offset="0.05" stop-color="#9B6D2F"/>
<stop offset="0.07" stop-color="#916325"/>
<stop offset="0.1" stop-color="#916325"/>
<stop offset="0.15" stop-color="#B18445"/>
<stop offset="0.17" stop-color="#BD9151"/>
<stop offset="0.23" stop-color="#BF9352"/>
<stop offset="0.27" stop-color="#C79C58"/>
<stop offset="0.3" stop-color="#D6AB62"/>
<stop offset="0.31" stop-color="#DCB267"/>
<stop offset="0.35" stop-color="#BC914B"/>
<stop offset="0.4" stop-color="#9A6D2D"/>
<stop offset="0.43" stop-color="#8E6022"/>
<stop offset="0.44" stop-color="#875A1F"/>
<stop offset="0.45" stop-color="#603913"/>
<stop offset="0.56" stop-color="#8A5E3C"/>
<stop offset="0.57" stop-color="#9A6933"/>
<stop offset="0.58" stop-color="#A8732C"/>
<stop offset="0.6" stop-color="#AD7B35"/>
<stop offset="0.63" stop-color="#BE9250"/>
<stop offset="0.66" stop-color="#D8B77C"/>
<stop offset="0.7" stop-color="#F7E3B0"/>
<stop offset="0.79" stop-color="#F7E3B1"/>
<stop offset="0.82" stop-color="#F8E6B8"/>
<stop offset="0.85" stop-color="#F9EBC4"/>
<stop offset="0.87" stop-color="#FBF2D6"/>
<stop offset="0.88" stop-color="#FBF1D1"/>
<stop offset="0.9" stop-color="#F7E3B0"/>
<stop offset="0.91" stop-color="#E3CB95"/>
<stop offset="0.94" stop-color="#BE9E64"/>
<stop offset="0.95" stop-color="#B08D51"/>
<stop offset="0.97" stop-color="#C09B5D"/>
<stop offset="1" stop-color="#E8BD7C"/>
</linearGradient>
<linearGradient id="paint9_linear_34_31" x1="12.0709" y1="10.5393" x2="12.2694" y2="15.1359" gradientUnits="userSpaceOnUse">
<stop stop-color="#F9CA2E"/>
<stop offset="0.03" stop-color="#F9D14C"/>
<stop offset="0.12" stop-color="#FCE9AB"/>
<stop offset="0.18" stop-color="#FEF9E7"/>
<stop offset="0.21" stop-color="white"/>
<stop offset="0.3" stop-color="#FFF8E6"/>
<stop offset="0.48" stop-color="#FFEAAA"/>
<stop offset="0.79" stop-color="#D38423"/>
<stop offset="1" stop-color="#824D51"/>
</linearGradient>
<linearGradient id="paint10_linear_34_31" x1="12.1501" y1="0.798046" x2="12.1501" y2="0" gradientUnits="userSpaceOnUse">
<stop stop-color="#D38423"/>
<stop offset="0.2" stop-color="#AD661F"/>
<stop offset="0.42" stop-color="#8C4C1C"/>
<stop offset="0.64" stop-color="#75391A"/>
<stop offset="0.83" stop-color="#662D19"/>
<stop offset="1" stop-color="#622A19"/>
</linearGradient>
<linearGradient id="paint11_linear_34_31" x1="12.1501" y1="0.798046" x2="12.1501" y2="0" gradientUnits="userSpaceOnUse">
<stop offset="0.1" stop-color="#824D51"/>
<stop offset="0.11" stop-color="#87524F"/>
<stop offset="0.21" stop-color="#B78541"/>
<stop offset="0.29" stop-color="#DBAA36"/>
<stop offset="0.36" stop-color="#F1C130"/>
<stop offset="0.41" stop-color="#F9CA2E"/>
<stop offset="0.46" stop-color="#FBD457"/>
<stop offset="0.54" stop-color="#FDE492"/>
<stop offset="0.58" stop-color="#FFEAAA"/>
<stop offset="0.63" stop-color="#FFF0C4"/>
<stop offset="0.7" stop-color="#FFF8E4"/>
<stop offset="0.76" stop-color="#FFFDF7"/>
<stop offset="0.8" stop-color="white"/>
<stop offset="0.84" stop-color="#FEFDFC"/>
<stop offset="0.87" stop-color="#FCF8F3"/>
<stop offset="0.89" stop-color="#F9EFE3"/>
<stop offset="0.92" stop-color="#F5E3CE"/>
<stop offset="0.94" stop-color="#EFD4B2"/>
<stop offset="0.96" stop-color="#E8C190"/>
<stop offset="0.97" stop-color="#E0AA67"/>
<stop offset="0.99" stop-color="#D79039"/>
<stop offset="1" stop-color="#D38423"/>
</linearGradient>
<linearGradient id="paint12_linear_34_31" x1="12.1501" y1="0.598861" x2="12.1501" y2="3.51694" gradientUnits="userSpaceOnUse">
<stop stop-color="#F9CA2E"/>
<stop offset="0.02" stop-color="#FAD559"/>
<stop offset="0.06" stop-color="#FCE69F"/>
<stop offset="0.1" stop-color="#FDF3D3"/>
<stop offset="0.12" stop-color="#FEFBF3"/>
<stop offset="0.14" stop-color="white"/>
<stop offset="0.27" stop-color="#FFF8E6"/>
<stop offset="0.55" stop-color="#FFEAAA"/>
<stop offset="0.62" stop-color="#FDE6A5"/>
<stop offset="0.7" stop-color="#F8DB96"/>
<stop offset="0.79" stop-color="#F0C97E"/>
<stop offset="0.88" stop-color="#E6B05D"/>
<stop offset="0.97" stop-color="#D89032"/>
<stop offset="1" stop-color="#D38423"/>
</linearGradient>
<linearGradient id="paint13_linear_34_31" x1="12.1501" y1="2.86025" x2="12.1501" y2="0.898118" gradientUnits="userSpaceOnUse">
<stop offset="0.3" stop-color="white"/>
<stop offset="0.41" stop-color="#D6C7C3"/>
<stop offset="0.52" stop-color="#B3988F"/>
<stop offset="0.63" stop-color="#967065"/>
<stop offset="0.73" stop-color="#7F5143"/>
<stop offset="0.83" stop-color="#6F3B2C"/>
<stop offset="0.92" stop-color="#652E1D"/>
<stop offset="1" stop-color="#622A19"/>
</linearGradient>
<clipPath id="clip0_34_31">
<rect width="5.6608" height="5.6608" fill="white" transform="translate(9.341 10.038)"/>
</clipPath>
</defs>
</svg>
