<svg width="33" height="32" viewBox="0 0 33 32" fill="none" xmlns="http://www.w3.org/2000/svg">
<path d="M22.4372 0C20.6244 0.122563 18.5057 1.25679 17.2709 2.73378C16.1446 4.07366 15.218 6.06376 15.5793 7.99776C17.56 8.058 19.6065 6.89677 20.7923 5.39485C21.9017 3.9968 22.7411 2.01917 22.4372 0Z" fill="white"/>
<path d="M28.5853 10.3109C26.9673 8.21582 24.6933 7 22.5458 7C19.7108 7 18.5116 8.40146 16.5419 8.40146C14.511 8.40146 12.968 7.00408 10.5163 7.00408C8.10803 7.00408 5.54368 8.52385 3.91775 11.1228C1.63196 14.7825 2.02314 21.6633 5.72742 27.5241C7.05305 29.6212 8.8232 31.9794 11.1386 31.9998C13.1992 32.0202 13.78 30.635 16.5716 30.6208C19.3631 30.6044 19.8926 32.0181 21.9492 31.9957C24.2666 31.9773 26.1336 29.3641 27.4592 27.2671C28.4095 25.7636 28.7631 25.0068 29.5 23.3095C24.1402 21.2022 23.2808 13.3321 28.5853 10.3109Z" fill="white"/>
</svg>
