<svg width="32" height="32" viewBox="0 0 32 32" fill="none" xmlns="http://www.w3.org/2000/svg">
<g clip-path="url(#clip0_37_78354)">
<path d="M20.6473 29.9794C19.5473 29.9794 18.6556 29.0878 18.6556 27.9878V27.5803H13.3444V27.9878C13.3444 29.0878 12.4527 29.9794 11.3527 29.9794H6.63893V31.8544H25.361V29.9794H20.6473Z" fill="#FFD400"/>
<path d="M0 19.7303C0 20.3116 0.472875 20.7845 1.05419 20.7845H30.9458C31.5271 20.7845 32 20.3116 32 19.7303V18.0122H0V19.7303Z" fill="#FFD400"/>
<path d="M1.05419 22.6594C0.682625 22.6594 0.327375 22.5892 0 22.4624V23.8303C0 24.8659 0.839437 25.7053 1.875 25.7053H30.125C31.1606 25.7053 32 24.8659 32 23.8303V22.4624C31.6726 22.5892 31.3174 22.6594 30.9458 22.6594H1.05419Z" fill="#FFD400"/>
<path d="M30.125 0.145264H1.875C0.839437 0.145264 0 0.984701 0 2.02026V3.85508H32V2.02026C32 0.984701 31.1606 0.145264 30.125 0.145264Z" fill="#FFD400"/>
<path d="M11.6042 5.72998V16.1372H20.3958V5.72998H11.6042ZM18.2902 10.26L18.0153 10.5347C18.0027 10.5475 16.5198 12.0719 16.5198 13.9619H14.6448C14.6448 12.0979 15.5939 10.5675 16.1999 9.78029H15.5848V9.96448H13.7098V7.90529H18.2902V10.26Z" fill="#FFD400"/>
<path d="M9.72919 5.72998H0V16.1372H9.72919V5.72998ZM7.15481 10.26L6.87988 10.5347C6.86725 10.5475 5.38438 12.0719 5.38438 13.9619H3.50938C3.50938 12.0979 4.4585 10.5675 5.0645 9.78029H4.44938V9.96448H2.57437V7.90529H7.15475L7.15481 10.26Z" fill="#FFD400"/>
<path d="M22.2708 16.1371H32V5.72998H22.2708V16.1371ZM24.8452 7.90523H29.4256V10.2599L29.1506 10.5346C29.138 10.5475 27.6552 12.0718 27.6552 13.9618H25.7802C25.7802 12.0979 26.7293 10.5674 27.3353 9.78023H26.7202V9.96442H24.8452V7.90523Z" fill="#FFD400"/>
</g>
<defs>
<clipPath id="clip0_37_78354">
<rect width="32" height="32" fill="#FFD400"/>
</clipPath>
</defs>
</svg>
