<svg width="32" height="32" viewBox="0 0 32 32" fill="none" xmlns="http://www.w3.org/2000/svg">
<g clip-path="url(#clip0_37_78385)">
<path d="M7.50748 22.78C6.92675 22.78 6.4543 23.2525 6.4543 23.8331V27.8721H8.5606V23.8331C8.5606 23.2525 8.08815 22.78 7.50748 22.78Z" fill="#727489"/>
<path d="M24.4925 22.78C23.9119 22.78 23.4394 23.2525 23.4394 23.8331V27.8721H25.5457V23.8331C25.5457 23.2525 25.0733 22.78 24.4925 22.78Z" fill="#727489"/>
<path d="M27.8756 11.6909H23.5679C23.5679 7.51398 20.1819 4.12793 16.005 4.12793C11.8281 4.12793 8.44194 7.51398 8.44194 11.6909H4.12444V13.692H27.8756V11.6909ZM16.9414 11.7323H15.0669V7.85108H16.9414V11.7323Z" fill="#727489"/>
<path d="M14.8846 19.3157H17.1153V27.8721H14.8846V19.3157Z" fill="#727489"/>
<path d="M2.00476 27.8722H4.57969V23.8333C4.57969 22.219 5.89306 20.9056 7.50742 20.9056C9.12171 20.9056 10.4351 22.219 10.4351 23.8333V27.8722H13.01V19.3157H2.00476V27.8722Z" fill="#727489"/>
<path d="M0 15.5664H32V17.4409H0V15.5664Z" fill="#727489"/>
<path d="M18.9899 27.8722H21.5649V23.8333C21.5649 22.219 22.8782 20.9056 24.4925 20.9056C26.1069 20.9056 27.4202 22.219 27.4202 23.8333V27.8722H29.9952V19.3157H18.9899V27.8722Z" fill="#727489"/>
</g>
<defs>
<clipPath id="clip0_37_78385">
<rect width="32" height="32" fill="white"/>
</clipPath>
</defs>
</svg>
