<svg width="32" height="32" viewBox="0 0 32 32" fill="none" xmlns="http://www.w3.org/2000/svg">
<g clip-path="url(#clip0_37_81900)">
<path d="M22.7197 9.45328H20.9407C20.2314 9.45328 19.5667 9.2589 18.997 8.92065C18.4272 9.25897 17.7626 9.45328 17.0533 9.45328H9.2803V10.605C9.2803 14.3162 12.2888 17.3247 16 17.3247C19.7112 17.3247 22.7197 14.3162 22.7197 10.605V9.45328ZM16 14.9037C13.9742 14.9037 12.3262 13.2557 12.3262 11.23H14.2012C14.2012 12.2218 15.0082 13.0287 16 13.0287C16.9918 13.0287 17.7987 12.2218 17.7987 11.23H19.6737C19.6737 13.2557 18.0257 14.9037 16 14.9037Z" fill="#FFD400"/>
<path d="M18.9969 5.63462C18.9969 6.70813 19.8672 7.57831 20.9406 7.57831H24.1974V3.88744C24.1974 2.81394 23.3271 1.94375 22.2537 1.94375H20.9407C19.8672 1.94375 18.997 2.814 18.997 3.88744V1.94369C18.9969 0.87025 18.1267 0 17.0532 0H12.9795C10.1169 0 7.7963 2.32063 7.7963 5.18325V7.57831H17.0532C18.1267 7.57831 18.9969 6.70806 18.9969 5.63462Z" fill="#FFD400"/>
<path d="M23.9386 17.3757V23.1775H21.1469L16.9375 27.3869V32H27.2863V21.308C27.2863 19.3245 25.8363 17.6802 23.9386 17.3757Z" fill="#FFD400"/>
<path d="M18.3823 22.3586C17.7252 22.8744 16.8982 23.1831 16 23.1831C15.1018 23.1831 14.2748 22.8744 13.6177 22.3586L13.1517 22.8246L16 25.6728L18.8482 22.8246L18.3823 22.3586Z" fill="#FFD400"/>
<path d="M8.06137 23.1775V17.3757C6.16368 17.6802 4.71368 19.3245 4.71368 21.308V31.9999H15.0625V27.3869L10.8531 23.1774H8.06137V23.1775Z" fill="#FFD400"/>
<path d="M17.4416 20.724C18.2193 19.9464 18.2193 18.6855 17.4416 17.9078C16.6639 17.1301 15.4031 17.1301 14.6254 17.9078C13.8477 18.6855 13.8477 19.9464 14.6254 20.724C15.4031 21.5017 16.6639 21.5017 17.4416 20.724Z" fill="#FFD400"/>
<path d="M9.97363 17.3247V21.3026H12.0594L14.0456 19.3164L12.0649 17.3358L9.97363 17.3247Z" fill="#FFD400"/>
<path d="M18.029 19.3164L20.0151 21.3026H22.1009V17.3247L20.0096 17.3358L18.029 19.3164Z" fill="#FFD400"/>
</g>
<defs>
<clipPath id="clip0_37_81900">
<rect width="32" height="32" fill="#FFD400"/>
</clipPath>
</defs>
</svg>
