<svg width="48" height="44" viewBox="0 0 48 44" fill="none" xmlns="http://www.w3.org/2000/svg">
<circle cx="40" cy="12" r="8" fill="#FA5926"/>
<path d="M36.902 14.394L36.594 13.8055C36.7443 13.5012 36.8873 13.2023 37.023 12.909C37.1587 12.612 37.2888 12.3205 37.4135 12.0345C37.5418 11.7448 37.6665 11.4588 37.7875 11.1765C37.9085 10.8905 38.0295 10.6063 38.1505 10.324C38.2715 10.038 38.3943 9.752 38.519 9.466C38.6473 9.18 38.7775 8.89033 38.9095 8.597C39.0452 8.3 39.1863 7.99933 39.333 7.695H39.7455L40.5815 8.1845C40.4422 8.4485 40.312 8.70517 40.191 8.9545C40.07 9.20017 39.9545 9.444 39.8445 9.686C39.7345 9.928 39.6263 10.1682 39.52 10.4065C39.4137 10.6448 39.3037 10.885 39.19 11.127C39.08 11.3653 38.9645 11.6092 38.8435 11.8585C38.7225 12.1078 38.5923 12.3645 38.453 12.6285L37.991 13.4205H42.941V14.394H36.902ZM40.433 16V13.3435L40.554 10.7035H41.698V16H40.433Z" fill="white"/>
<g clip-path="url(#clip0_37_81874)">
<path d="M15.0625 25.7344V20.4849H16.9375V25.7338L23.3865 19.2814C24.1329 18.5083 24.5928 17.4569 24.5928 16.2975C24.5928 13.9241 22.6688 12 20.2953 12C17.9363 12 16.0221 13.9009 15.9989 16.2544C15.9756 13.9009 14.0614 12 11.7024 12C9.329 12 7.40494 13.9241 7.40494 16.2975C7.40494 17.4926 7.89306 18.5733 8.68038 19.3523L15.0625 25.7344Z" fill="#FFD400"/>
<path d="M16.9375 30.2656V35.5151H15.0625V30.2662L8.61351 36.7186C7.86713 37.4917 7.4072 38.5431 7.4072 39.7025C7.4072 42.0759 9.33126 44 11.7047 44C14.0637 44 15.9779 42.0991 16.0011 39.7456C16.0244 42.0991 17.9386 44 20.2976 44C22.671 44 24.5951 42.0759 24.5951 39.7025C24.5951 38.5074 24.1069 37.4267 23.3196 36.6478L16.9375 30.2656Z" fill="#FFD400"/>
<path d="M8.48494 28.9375V27.0625H13.7338L7.28137 20.6135C6.50831 19.8672 5.45694 19.4072 4.2975 19.4072C1.92406 19.4072 0 21.3313 0 23.7047C0 26.0637 1.90088 27.9779 4.25437 28.0012C1.90088 28.0244 0 29.9386 0 32.2976C0 34.671 1.92406 36.5951 4.2975 36.5951C5.49256 36.5951 6.57331 36.107 7.35225 35.3197L13.7344 28.9375H8.48494Z" fill="#FFD400"/>
<path d="M27.7456 27.999C30.0991 27.9757 32 26.0615 32 23.7025C32 21.3291 30.0759 19.405 27.7025 19.405C26.5074 19.405 25.4267 19.8932 24.6478 20.6805L18.2656 27.0626H23.5151V28.9376H18.2662L24.7187 35.3866C25.4917 36.133 26.5431 36.5929 27.7026 36.5929C30.076 36.5929 32.0001 34.6688 32.0001 32.2954C32 29.9364 30.0991 28.0222 27.7456 27.999Z" fill="#FFD400"/>
</g>
<defs>
<clipPath id="clip0_37_81874">
<rect width="32" height="32" fill="white" transform="translate(0 12)"/>
</clipPath>
</defs>
</svg>
