<svg width="32" height="32" viewBox="0 0 32 32" fill="none" xmlns="http://www.w3.org/2000/svg">
<path d="M9.53494 15.4497C8.56425 14.0332 8.04156 12.3594 8.04156 10.605V5.18323C8.04156 3.30454 8.77075 1.53804 10.095 0.206543C7.53481 0.895668 5.65031 3.23298 5.65031 6.01086V12.6506C5.65031 13.3883 5.05231 13.9864 4.31456 13.9864H4.0775V15.3221C4.0775 16.1229 4.5475 16.8137 5.2265 17.1345C6.28456 16.0932 7.73506 15.4496 9.33331 15.4496H9.53494V15.4497Z" fill="#727489"/>
<path d="M23.3559 10.605V9.45328H18.5799C17.8706 9.45328 17.2059 9.2589 16.6363 8.92065C16.0665 9.25897 15.4018 9.45328 14.6926 9.45328H9.91663V10.605C9.91663 14.3162 12.9251 17.3247 16.6363 17.3247C20.3474 17.3247 23.3559 14.3162 23.3559 10.605ZM16.6363 14.9037C14.6105 14.9037 12.9625 13.2557 12.9625 11.23H14.8375C14.8375 12.2218 15.6444 13.0287 16.6363 13.0287C17.6281 13.0287 18.435 12.2218 18.435 11.23H20.31C20.31 13.2557 18.6619 14.9037 16.6363 14.9037Z" fill="#727489"/>
<path d="M14.6445 19.3164C14.6445 20.4164 15.5362 21.3081 16.6362 21.3081C17.7362 21.3081 18.6279 20.4164 18.6279 19.3164C18.6279 18.2164 17.7362 17.3247 16.6362 17.3247C15.5362 17.3247 14.6445 18.2164 14.6445 19.3164Z" fill="#727489"/>
<path d="M10.5726 17.3247V21.3026H12.6584L14.6445 19.3164L12.6639 17.3358L10.5726 17.3247Z" fill="#727489"/>
<path d="M20.6141 21.3026H22.6999V17.3247L20.6086 17.3358L18.6279 19.3164L20.6141 21.3026Z" fill="#727489"/>
<path d="M19.0186 22.3586C18.3614 22.8744 17.5344 23.1831 16.6362 23.1831C15.7381 23.1831 14.9111 22.8744 14.2539 22.3586L13.788 22.8246L16.6362 25.6728L19.4845 22.8246L19.0186 22.3586Z" fill="#727489"/>
<path d="M8.69762 23.1775V17.3757C6.79993 17.6802 5.34993 19.3245 5.34993 21.308V31.9999H15.6987V27.3869L11.4893 23.1774H8.69762V23.1775Z" fill="#727489"/>
<path d="M24.5749 17.3757V23.1775H21.7831L17.5737 27.3869V32H27.9225V21.308C27.9225 19.3245 26.4726 17.6802 24.5749 17.3757Z" fill="#727489"/>
<path d="M9.91657 7.57831H14.6925C15.766 7.57831 16.6362 6.70806 16.6362 5.63462C16.6362 6.70813 17.5064 7.57831 18.5799 7.57831H23.3558V5.18325C23.3559 2.32063 21.0353 0 18.1726 0H15.0998C12.2371 0 9.9165 2.32063 9.9165 5.18325L9.91657 7.57831Z" fill="#727489"/>
</svg>
