<svg width="48" height="44" viewBox="0 0 48 44" fill="none" xmlns="http://www.w3.org/2000/svg">
<circle cx="40" cy="12" r="8" fill="#FA5926"/>
<path d="M37.88 16L37.6875 15.351C38.0285 15.1237 38.3768 14.8615 38.7325 14.5645C39.0882 14.2675 39.4273 13.9485 39.75 13.6075C40.0727 13.2665 40.3623 12.9127 40.619 12.546C40.8757 12.1757 41.0773 11.8035 41.224 11.4295C41.3743 11.0555 41.4495 10.6888 41.4495 10.3295C41.4495 9.83817 41.3267 9.46233 41.081 9.202C40.839 8.94167 40.4998 8.8115 40.0635 8.8115C39.6895 8.8115 39.3412 8.8885 39.0185 9.0425C38.6995 9.19283 38.4428 9.37067 38.2485 9.576L37.715 8.8115C37.858 8.66117 38.0487 8.50533 38.287 8.344C38.529 8.179 38.8168 8.0415 39.1505 7.9315C39.4842 7.81783 39.8582 7.761 40.2725 7.761C40.8555 7.761 41.3322 7.87283 41.7025 8.0965C42.0765 8.32017 42.3515 8.62083 42.5275 8.9985C42.7035 9.37617 42.7915 9.79783 42.7915 10.2635C42.7915 10.8135 42.6577 11.3708 42.39 11.9355C42.126 12.5002 41.7593 13.0428 41.29 13.5635C40.8243 14.0805 40.2853 14.5517 39.673 14.977L43.105 14.9275V16H37.88Z" fill="white"/>
<g clip-path="url(#clip0_37_23109)">
<path d="M10.9624 17.5632H13.0707V22.4369H10.9624V17.5632Z" fill="#727489"/>
<path d="M14.9458 17.5632H17.0542V22.4369H14.9458V17.5632Z" fill="#727489"/>
<path d="M0 12.6423V27.3578C0 36.1943 7.16344 43.3578 16 43.3578C24.8366 43.3578 32 36.1943 32 27.3578V12.6423H0ZM9.08737 15.6883H22.9126V24.312H9.08737V15.6883ZM6.04275 28.2953H2.9875V26.4203H6.04275V28.2953ZM7.46169 37.2219L6.13588 35.8961L8.29625 33.7357L9.62206 35.0615L7.46169 37.2219ZM16.9375 40.3703H15.0625V37.315H16.9375V40.3703ZM16 35.265C11.64 35.265 8.09281 31.7178 8.09281 27.3578V26.362H9.96781V27.3578C9.96781 30.684 12.6738 33.39 16 33.39C19.3262 33.39 22.0322 30.684 22.0322 27.3578V26.362H23.9072V27.3578C23.9072 31.7178 20.36 35.265 16 35.265ZM24.5383 37.2219L22.3779 35.0615L23.7038 33.7357L25.8641 35.8961L24.5383 37.2219ZM29.0125 28.2953H25.9573V26.4203H29.0125V28.2953Z" fill="#727489"/>
<path d="M18.9292 17.5632H21.0376V22.4369H18.9292V17.5632Z" fill="#727489"/>
</g>
<defs>
<clipPath id="clip0_37_23109">
<rect width="32" height="32" fill="white" transform="translate(0 12)"/>
</clipPath>
</defs>
</svg>
