<svg width="32" height="32" viewBox="0 0 32 32" fill="none" xmlns="http://www.w3.org/2000/svg">
<g clip-path="url(#clip0_37_78394)">
<path d="M13.4264 5.9021L10.2115 13.3188H21.7885L18.5736 5.9021H13.4264Z" fill="#727489"/>
<path d="M0.693756 15.1936L13.1216 26.0772L8.17288 15.1936H0.693756Z" fill="#727489"/>
<path d="M10.2455 15.1936L16 27.8745L21.7546 15.1936H10.2455Z" fill="#727489"/>
<path d="M23.8271 15.1936L18.8784 26.0772L31.3062 15.1936H23.8271Z" fill="#727489"/>
<path d="M23.8321 13.3188H31.9689L27.505 5.9021H20.6172L23.8321 13.3188Z" fill="#727489"/>
<path d="M11.3828 5.9021H4.495L0.0311279 13.3188H8.16794L11.3828 5.9021Z" fill="#727489"/>
<path d="M15.0625 0H16.9375V3.74169H15.0625V0Z" fill="#727489"/>
<path d="M18.46 3.08057L21.1054 0.435149L22.431 1.76077L19.7856 4.40619L18.46 3.08057Z" fill="#727489"/>
<path d="M9.56512 1.75977L10.8907 0.434141L13.5361 3.07951L12.2105 4.40514L9.56512 1.75977Z" fill="#727489"/>
<path d="M25.3802 26.7119L26.7058 25.3863L29.3512 28.0317L28.0256 29.3573L25.3802 26.7119Z" fill="#727489"/>
<path d="M22.9014 28.2583H24.7764V32H22.9014V28.2583Z" fill="#727489"/>
<path d="M28.2583 22.9014H32V24.7764H28.2583V22.9014Z" fill="#727489"/>
<path d="M2.63965 28.0291L5.28502 25.3837L6.61065 26.7093L3.96527 29.3547L2.63965 28.0291Z" fill="#727489"/>
<path d="M7.22363 28.2583H9.09863V32H7.22363V28.2583Z" fill="#727489"/>
<path d="M0 22.9014H3.74169V24.7764H0V22.9014Z" fill="#727489"/>
</g>
<defs>
<clipPath id="clip0_37_78394">
<rect width="32" height="32" fill="white"/>
</clipPath>
</defs>
</svg>
